<svg style="display: none;"><symbol viewBox="0 0 96 96" id="icon-github"><title>github</title><path d="M48.07,47.746c-0.022,0-0.047-0.001-0.07-0.002c-0.024,0.001-0.049,0.002-0.071,0.002c-5.957,0-11.206-1.508-14.308,1.34  c-1.859,1.709-2.642,3.768-2.642,5.985c0,9.261,7.42,10.398,16.949,10.398h0.142c9.529,0,16.949-1.138,16.949-10.398  c0-2.218-0.783-4.276-2.642-5.985C59.275,46.238,54.027,47.746,48.07,47.746z M39.968,60.401c-1.813,0-3.283-2.036-3.283-4.547  s1.47-4.546,3.283-4.546s3.285,2.035,3.285,4.546S41.781,60.401,39.968,60.401z M56.031,60.401c-1.814,0-3.285-2.036-3.285-4.547  s1.471-4.546,3.285-4.546c1.812,0,3.283,2.035,3.283,4.546S57.844,60.401,56.031,60.401z M48,0C21.489,0,0,21.49,0,48  s21.489,48,48,48c26.509,0,48-21.49,48-48S74.509,0,48,0z M52.378,67.701c-0.86,0-2.57,0.002-4.378,0.004  c-1.809-0.002-3.52-0.004-4.379-0.004c-3.803,0-18.863-0.291-18.863-18.445c0-4.177,1.432-7.233,3.775-9.778  c-0.374-0.923-0.393-6.165,1.602-11.183c0,0,4.576,0.502,11.5,5.253c1.451-0.401,3.908-0.601,6.365-0.601  c2.455,0,4.912,0.199,6.365,0.601c6.923-4.751,11.498-5.253,11.498-5.253c1.995,5.018,1.977,10.26,1.603,11.183  c2.344,2.545,3.776,5.602,3.776,9.778C71.242,67.41,56.181,67.701,52.378,67.701z"/></symbol><symbol viewBox="0 0 18 15" id="icon-menu"><title>menu</title> <path fill="#424242" d="M18,1.484c0,0.82-0.665,1.484-1.484,1.484H1.484C0.665,2.969,0,2.304,0,1.484l0,0C0,0.665,0.665,0,1.484,0 h15.031C17.335,0,18,0.665,18,1.484L18,1.484z"/> <path fill="#424242" d="M18,7.516C18,8.335,17.335,9,16.516,9H1.484C0.665,9,0,8.335,0,7.516l0,0c0-0.82,0.665-1.484,1.484-1.484 h15.031C17.335,6.031,18,6.696,18,7.516L18,7.516z"/> <path fill="#424242" d="M18,13.516C18,14.335,17.335,15,16.516,15H1.484C0.665,15,0,14.335,0,13.516l0,0 c0-0.82,0.665-1.484,1.484-1.484h15.031C17.335,12.031,18,12.696,18,13.516L18,13.516z"/> </symbol><symbol viewBox="0 0 64 64" id="icon-wordpress"><title>wordpress</title><path d="M4.55,32c0,10.864,6.312,20.255,15.471,24.704L6.926,20.828C5.402,24.242,4.55,28.019,4.55,32z M50.532,30.615  c0-3.395-1.22-5.743-2.263-7.571c-1.394-2.261-2.697-4.174-2.697-6.438c0-2.521,1.912-4.871,4.611-4.871  c0.119,0,0.233,0.015,0.354,0.021c-4.885-4.474-11.389-7.204-18.538-7.204c-9.591,0-18.025,4.918-22.937,12.371  c0.646,0.02,1.252,0.033,1.77,0.033c2.869,0,7.314-0.351,7.314-0.351c1.479-0.086,1.656,2.089,0.176,2.265  c0,0-1.487,0.173-3.143,0.261l9.998,29.733l6.007-18.017L26.909,19.13c-1.479-0.088-2.879-0.261-2.879-0.261  c-1.481-0.089-1.308-2.351,0.174-2.265c0,0,4.532,0.351,7.229,0.351c2.872,0,7.316-0.351,7.316-0.351  c1.479-0.086,1.655,2.089,0.176,2.265c0,0-1.489,0.173-3.141,0.261l9.92,29.508l2.739-9.147  C49.832,35.921,50.532,32.966,50.532,30.615z M32.482,34.398l-8.237,23.935c2.46,0.726,5.061,1.118,7.754,1.118  c3.196,0,6.263-0.553,9.116-1.555c-0.073-0.117-0.141-0.241-0.195-0.381L32.482,34.398z M56.089,18.83  c0.116,0.875,0.185,1.812,0.185,2.823c0,2.786-0.521,5.917-2.088,9.832l-8.385,24.242c8.163-4.759,13.65-13.601,13.65-23.728  C59.451,27.226,58.23,22.741,56.089,18.83z M0,32c0,17.646,14.356,32,31.999,32C49.643,64,64,49.646,64,32  C64,14.355,49.643,0,31.999,0C14.356,0,0,14.355,0,32z M1.468,32c0-16.834,13.697-30.529,30.531-30.529  c16.837,0,30.534,13.695,30.534,30.529c0,16.835-13.697,30.533-30.534,30.533C15.165,62.533,1.468,48.835,1.468,32z"/></symbol></svg>